<?xml version="1.0" encoding="UTF-8"?>
<!DOCTYPE svg PUBLIC "-//W3C//DTD SVG 1.1//EN" "http://www.w3.org/Graphics/SVG/1.1/DTD/svg11.dtd">
<!-- Creator: CorelDRAW -->
<svg xmlns="http://www.w3.org/2000/svg" xml:space="preserve" width="3.77371in" height="4.15208in" version="1.1" style="shape-rendering:geometricPrecision; text-rendering:geometricPrecision; image-rendering:optimizeQuality; fill-rule:evenodd; clip-rule:evenodd"
viewBox="0 0 3773.71 4152.08"
 xmlns:xlink="http://www.w3.org/1999/xlink"
 xmlns:xodm="http://www.corel.com/coreldraw/odm/2003">
 <defs>
  <style type="text/css">
   <![CDATA[
    .fil1 {fill:#212121}
    .fil0 {fill:#252525}
   ]]>
  </style>
 </defs>
 <g id="Layer_x0020_1">
  <metadata id="CorelCorpID_0Corel-Layer"/>
  <g id="_2496385343616">
   <g>
    <path class="fil0" d="M1102.5 2026.94c-293.42,83.68 -627.43,403.47 -804.5,658.62 -146.85,211.63 -502.77,810.54 -140.39,992.9 183.37,92.28 940.95,175.33 1229.84,197.38 25.14,-53.27 67.91,-104.5 131.94,-148.66l598.2 -412.56c-47.7,-12.06 -92.25,-28.13 -129.83,-51.62 -88.61,-55.4 -135.96,-136.98 -147.76,-220.62 -7.08,-50.19 -0.67,-101.19 17.91,-147.94 18.73,-47.16 49.67,-89.42 91.44,-121.66 66.49,-51.33 158.29,-77.1 267.8,-54.7 32.13,6.57 87.95,15.35 155.78,26.01 263.87,41.47 687.22,108.03 769.59,227.48 89.37,129.61 35.9,357.56 -1.87,518.55 -8.54,36.43 -16.18,68.96 -19.13,85.03 -2.9,15.8 -10.84,62.02 -18.59,107.13 -6.75,39.3 -13.31,77.52 -20.54,115.98 233.26,-34.04 522.18,-89.65 606.77,-178.57 62.84,-66.05 101.42,-153 77.23,-274.8 -107.58,-541.77 -507.35,-1002.22 -945.2,-1247.1 -282.47,-157.98 -285.41,-65.5 -536.65,33.93 -281.05,111.23 -625.02,96.75 -899.04,-41.56 -98.95,-49.94 -151.49,-100.74 -283.02,-63.23zm664.61 1865.79c29.45,0.47 58.97,0.75 88.53,0.85l910.98 -630.46 28.24 227.39c9.01,72.59 -8.2,155.27 -26.2,241.76 -7.74,37.17 -15.68,75.29 -20.63,109.62 14.55,-1.76 29.06,-3.56 43.53,-5.39 15.01,-67.28 26.19,-132.32 37.96,-200.87 4.3,-25.02 8.72,-50.74 19.68,-110.38 6.13,-33.41 13.29,-63.89 21.3,-98.05 26.25,-111.91 63.42,-270.37 44.18,-298.27 -15.14,-21.96 -365.6,-77.05 -584.04,-111.38 -73.51,-11.55 -134.02,-21.07 -168.8,-28.18 -22.13,-4.52 -36.23,-2.75 -43.19,2.62 -1.72,1.33 -2.93,2.88 -3.56,4.47 -0.8,2 -1,4.75 -0.54,7.96 0.99,7.04 7.22,15.32 19.72,23.13 30.8,19.25 112.44,31.32 190.38,42.84 67.28,9.94 132.45,19.58 187.95,37.74l266 87.01 -1011.49 697.61z"/>
    <path class="fil0" d="M1729.39 14.83c-309.38,54.85 -468.55,197.02 -603.57,362.61 -264.29,324.11 -265.72,823.3 -22.26,1148.68 17.46,23.34 41.42,41.76 60.6,63.42 655.76,740.18 1824.2,136.99 1665.85,-791.34 -78.37,-459.47 -535.44,-883.58 -1100.62,-783.37z"/>
   </g>
   <path class="fil1" d="M1791.14 4106.6l865.92 -599.28c21.82,175.75 -208.44,593.93 151.22,552.92l83.37 -57.48c48.4,-163.59 64.25,-292.15 93.72,-452.56 22.11,-120.4 111.59,-400.81 43.24,-499.95 -63.04,-91.44 -691.45,-166.32 -839.1,-196.53 -209.97,-42.95 -288.88,191.27 -128.48,291.56 92.2,57.64 298.85,58.74 408.71,94.68l-871.65 601.16c-228.53,157.61 -24.52,416.06 193.06,265.48z"/>
  </g>
 </g>
</svg>
